<?xml version="1.0" encoding="utf-8"?>
<!-- Svg Vector Icons : http://www.onlinewebfonts.com/icon -->
<!DOCTYPE svg PUBLIC "-//W3C//DTD SVG 1.1//EN" "http://www.w3.org/Graphics/SVG/1.1/DTD/svg11.dtd">
<svg version="1.1" xmlns="http://www.w3.org/2000/svg" xmlns:xlink="http://www.w3.org/1999/xlink" x="0px" y="0px" viewBox="0 0 256 256" enable-background="new 0 0 256 256" xml:space="preserve">
<metadata> Svg Vector Icons : http://www.onlinewebfonts.com/icon </metadata>
<g><g><g><path fill="#000000" d="M163.5,21.6v11.6h21.2h21.2l-30.4,30.4l-30.3,30.3l8.4,8.5l8.5,8.4l30.3-30.3l30.4-30.4v21.2v21.2h11.6H246V51.3V10h-41.3h-41.3V21.6z"/><path fill="#000000" d="M63.6,175.5l-30.3,30.3v-21.2v-21.2H21.6H10v41.3V246h41.3h41.3v-11.6v-11.6H71.4H50.2l30.1-30.1c16.5-16.5,30-30.3,30-30.6c0-0.3-3.7-4.3-8.2-8.8l-8.1-8.1L63.6,175.5z"/></g></g></g>
</svg>